<?xml version="1.0" encoding="UTF-8"?> <svg xmlns="http://www.w3.org/2000/svg" xmlns:xlink="http://www.w3.org/1999/xlink" id="Layer_2" data-name="Layer 2" viewBox="0 0 1151.87 238.87"><defs><style> .cls-1 { clip-path: url(#clippath); } .cls-2 { fill: none; } .cls-2, .cls-3, .cls-4, .cls-5, .cls-6, .cls-7, .cls-8, .cls-9, .cls-10, .cls-11, .cls-12, .cls-13, .cls-14, .cls-15, .cls-16, .cls-17, .cls-18, .cls-19, .cls-20, .cls-21, .cls-22, .cls-23, .cls-24, .cls-25, .cls-26, .cls-27, .cls-28, .cls-29, .cls-30, .cls-31 { stroke-width: 0px; } .cls-3 { fill: url(#linear-gradient); } .cls-4 { fill: url(#radial-gradient); } .cls-5 { fill: url(#linear-gradient-11); } .cls-6 { fill: url(#linear-gradient-12); } .cls-7 { fill: url(#linear-gradient-13); } .cls-8 { fill: url(#linear-gradient-10); } .cls-9 { fill: url(#linear-gradient-17); } .cls-10 { fill: url(#linear-gradient-16); } .cls-11 { fill: url(#linear-gradient-19); } .cls-12 { fill: url(#linear-gradient-15); } .cls-13 { fill: url(#linear-gradient-21); } .cls-14 { fill: url(#linear-gradient-18); } .cls-15 { fill: url(#linear-gradient-14); } .cls-16 { fill: url(#linear-gradient-20); } .cls-17 { fill: #ef4823; } .cls-18 { fill: #311111; } .cls-19 { fill: #f26922; } .cls-20 { fill: #fdc20f; } .cls-21 { fill: #ae1f23; } .cls-22 { fill: #c92027; } .cls-23 { fill: url(#linear-gradient-4); } .cls-24 { fill: url(#linear-gradient-2); } .cls-25 { fill: url(#linear-gradient-3); } .cls-26 { fill: url(#linear-gradient-8); } .cls-27 { fill: url(#linear-gradient-9); } .cls-28 { fill: url(#linear-gradient-7); } .cls-29 { fill: url(#linear-gradient-5); } .cls-30 { fill: url(#linear-gradient-6); } .cls-31 { fill: #f68820; } </style><linearGradient id="linear-gradient" x1="334.49" y1="-1306.81" x2="334.49" y2="-1199.51" gradientTransform="translate(0 1306.91)" gradientUnits="userSpaceOnUse"><stop offset="0" stop-color="#f68921"></stop><stop offset=".2" stop-color="#f58021"></stop><stop offset=".3" stop-color="#f26821"></stop><stop offset=".5" stop-color="#ef4423"></stop><stop offset=".7" stop-color="#df3624"></stop><stop offset="1" stop-color="#c72127"></stop></linearGradient><linearGradient id="linear-gradient-2" x1="334.49" y1="-1306.81" x2="334.49" y2="-1199.51" gradientTransform="translate(0 1306.91)" gradientUnits="userSpaceOnUse"><stop offset="0" stop-color="#fff" stop-opacity="0"></stop><stop offset=".5" stop-color="#fff"></stop><stop offset="1" stop-color="#fff" stop-opacity="0"></stop></linearGradient><linearGradient id="linear-gradient-3" x1="1079.79" y1="-1306.91" x2="1079.79" xlink:href="#linear-gradient"></linearGradient><linearGradient id="linear-gradient-4" x1="1079.79" y1="-1306.91" x2="1079.79" xlink:href="#linear-gradient-2"></linearGradient><linearGradient id="linear-gradient-5" x1="967.64" y1="-1306.91" x2="967.64" xlink:href="#linear-gradient"></linearGradient><linearGradient id="linear-gradient-6" x1="967.44" y1="-1306.91" x2="967.44" xlink:href="#linear-gradient-2"></linearGradient><linearGradient id="linear-gradient-7" x1="844.14" y1="-1306.91" x2="844.14" y2="-1199.71" xlink:href="#linear-gradient"></linearGradient><linearGradient id="linear-gradient-8" x1="336.29" x2="336.29" xlink:href="#linear-gradient"></linearGradient><linearGradient id="linear-gradient-9" x1="569.59" x2="569.59" xlink:href="#linear-gradient"></linearGradient><linearGradient id="linear-gradient-10" x1="569.59" x2="569.59" xlink:href="#linear-gradient-2"></linearGradient><linearGradient id="linear-gradient-11" x1="571.69" x2="571.69" xlink:href="#linear-gradient"></linearGradient><linearGradient id="linear-gradient-12" x1="450.89" y1="-1306.81" x2="450.89" y2="-1199.61" xlink:href="#linear-gradient"></linearGradient><linearGradient id="linear-gradient-13" x1="450.89" y1="-1306.81" x2="450.89" y2="-1199.61" xlink:href="#linear-gradient-2"></linearGradient><linearGradient id="linear-gradient-14" x1="452.69" y1="-1306.81" x2="452.69" y2="-1199.61" xlink:href="#linear-gradient"></linearGradient><linearGradient id="linear-gradient-15" x1="707.44" x2="707.44" y2="-1199.41" xlink:href="#linear-gradient"></linearGradient><linearGradient id="linear-gradient-16" x1="707.34" x2="707.34" y2="-1199.41" xlink:href="#linear-gradient-2"></linearGradient><linearGradient id="linear-gradient-17" x1="709.44" x2="709.44" y2="-1199.41" xlink:href="#linear-gradient"></linearGradient><linearGradient id="linear-gradient-18" x1="844.14" y1="-1306.91" x2="844.14" y2="-1199.71" xlink:href="#linear-gradient-2"></linearGradient><linearGradient id="linear-gradient-19" x1="969.94" y1="-1306.91" x2="969.94" xlink:href="#linear-gradient"></linearGradient><linearGradient id="linear-gradient-20" x1="1080.99" y1="-1306.91" x2="1080.99" xlink:href="#linear-gradient"></linearGradient><linearGradient id="linear-gradient-21" x1="845.84" y1="-1306.91" x2="845.84" y2="-1199.71" xlink:href="#linear-gradient"></linearGradient><clipPath id="clippath"><path class="cls-2" d="M116.29,237.4s-9.1-43.8-19.9-90.2c0,0-4.9-24.6-22.8-21.2,0,0-6.1-4.1,13.7-13,0,0,12.5-5.4,23.4,14.9,0,0,14.8,27.5,19.7,108.9,0,0,51-54.5,44.5-110.3l19.2,2.4s-3.4,42.5-51.3,106c0,0,36.2-5.5,64.2-37,0,0,29.4-28.4,30.1-78.9,0,0,.9-23.9-10-47.8,0,0-73.6,59.5-76.4,67.1,0,0-8.7,11.3-.4,21.6,0,0-.6,7.4-17.9-5.9,0,0-10.7-8.9,2.2-28.1,0,0,14.3-22.6,85.7-67.9,0,0-68-19.5-117.6,12.5l-7-18s42.4-16.8,117.2-5.3c0,0-30.8-46.3-94.1-47,0,0-59.2-3.5-98.4,52.3,0,0,75.3,28.2,95.8,31.3,0,0,18.4,3.9,22.6-10.3,0,0,7.2-2.1,4.2,18.4,0,0-6.4,35.3-129.1-28,0,0,18.3,69.7,72.9,96.5l-11.9,15.3s-35.1-26.1-66.8-99.7c0,0-23.4,49.8,9.4,104.7,0,0,30.6,55.6,98.7,56.6h0l.1.1Z"></path></clipPath><radialGradient id="radial-gradient" cx="89.02" cy="74.66" fx="89.02" fy="74.66" r="161.61" gradientUnits="userSpaceOnUse"><stop offset="0" stop-color="#fddf68"></stop><stop offset=".02" stop-color="#fcd961"></stop><stop offset=".11" stop-color="#fbb93f"></stop><stop offset=".19" stop-color="#fba62a"></stop><stop offset=".24" stop-color="#fb9f23"></stop><stop offset=".33" stop-color="#f99b23"></stop><stop offset=".41" stop-color="#f58f23"></stop><stop offset=".49" stop-color="#ee7b24"></stop><stop offset=".58" stop-color="#e45f25"></stop><stop offset=".65" stop-color="#d94126"></stop><stop offset=".77" stop-color="#da4425"></stop><stop offset=".87" stop-color="#e14d24"></stop><stop offset=".95" stop-color="#eb5e22"></stop><stop offset=".99" stop-color="#f26822"></stop></radialGradient></defs><g id="Layer_2-2" data-name="Layer 2"><g id="Layer_3-2" data-name="Layer 3-2"><g id="Logo-Final-2"><path class="cls-3" d="M404.29,107.4L343.39,6.2c-1.1-1.8-2.3-3.4-3.7-4.5-1.4-1.1-3.1-1.6-5.2-1.6s-3.8.5-5.2,1.6c-1.4,1.1-2.8,2.7-3.9,4.5l-60.8,101.2h21.1l48.1-81.2,23.6,39.6h-32.5l-8.7,15h50.1l15.9,26.6h22.2-.1Z"></path><path class="cls-24" d="M404.29,107.4L343.39,6.2c-1.1-1.8-2.3-3.4-3.7-4.5-1.4-1.1-3.1-1.6-5.2-1.6s-3.8.5-5.2,1.6c-1.4,1.1-2.8,2.7-3.9,4.5l-60.8,101.2h21.1l48.1-81.2,23.6,39.6h-32.5l-8.7,15h50.1l15.9,26.6h22.2-.1Z"></path><path class="cls-18" d="M864.39,107.2c7.6,0,14.5-1.4,20.8-4.2s11.8-6.5,16.4-11.3c4.6-4.8,8.2-10.5,10.8-17.1s3.9-15.2,3.9-22.8-1.3-14.7-3.8-21c-2.5-6.4-6.1-11.8-10.6-16.4-4.6-4.6-10-8.1-16.4-10.6S872.09,0,864.49,0h-25.7c-7.4,0-14.2,1.2-20.4,3.7s-11.7,6-16.3,10.5c-4.6,4.5-8.2,10-10.8,16.4-2.6,6.4-3.9,13.5-3.9,21.2s1.3,16.2,3.9,22.8,6.2,12.3,10.8,17.1,10,8.6,16.3,11.3c6.3,2.8,13.1,4.2,20.4,4.2h25.7-.1ZM838.59,88.8c-4.8,0-9.1-.9-13.2-2.6-4-1.7-7.5-4.2-10.4-7.2-2.9-3.1-5.2-6.7-6.8-11-1.6-4.3-2.5-10.3-2.5-15.3s.8-9.7,2.5-13.8,3.9-7.8,6.8-10.8,6.4-5.4,10.4-7.1c4-1.7,8.4-2.5,13.2-2.5h25.7c4.8,0,9.3.9,13.4,2.5,4.1,1.7,7.6,4.1,10.5,7.1,3,3,5.3,6.6,6.9,10.8,1.6,4.2,2.5,8.8,2.5,13.7s-.8,11-2.5,15.3c-1.6,4.3-4,7.9-6.9,11s-6.5,5.4-10.5,7.2c-4.1,1.7-8.5,2.6-13.4,2.6h-25.7v.1Z"></path><path class="cls-18" d="M1096.79,107.4V18.5h40.2V0h-98.8v18.5h40.1v88.9h18.5Z"></path><path class="cls-25" d="M1088.99,107.4V18.5h40.2V0h-98.8v18.5h40.1v88.9h18.5Z"></path><path class="cls-23" d="M1088.99,107.4V18.5h40.2V0h-98.8v18.5h40.1v88.9h18.5Z"></path><path class="cls-18" d="M949.79,107.4V18.5h71.4V0h-89.9v107.4h18.5ZM1016.79,62v-16.1h-53.5v16.1h53.5Z"></path><path class="cls-29" d="M941.19,107.4V18.5h71.4V0h-89.9v107.4h18.5ZM1008.09,62v-16.1h-53.5v16.1h53.5Z"></path><path class="cls-30" d="M940.99,107.4V18.5h71.4V0h-89.9v107.4h18.5ZM1007.99,62v-16.1h-53.5v16.1h53.5Z"></path><path class="cls-28" d="M856.69,107.2c7.6,0,14.5-1.4,20.8-4.2s11.8-6.5,16.4-11.3c4.6-4.8,8.2-10.5,10.8-17.1s3.9-15.2,3.9-22.8-1.3-14.7-3.8-21c-2.5-6.4-6.1-11.8-10.6-16.4-4.6-4.6-10-8.1-16.4-10.6S864.39,0,856.79,0h-25.7c-7.4,0-14.2,1.2-20.4,3.7s-11.7,6-16.3,10.5-8.2,10-10.8,16.4c-2.6,6.4-3.9,13.5-3.9,21.2s1.3,16.2,3.9,22.8,6.2,12.3,10.8,17.1,10,8.6,16.3,11.3c6.3,2.8,13.1,4.2,20.4,4.2h25.7-.1ZM830.99,88.8c-4.8,0-9.1-.9-13.2-2.6-4-1.7-7.5-4.2-10.4-7.2-2.9-3.1-5.2-6.7-6.8-11-1.6-4.3-2.5-10.3-2.5-15.3s.8-9.7,2.5-13.8,3.9-7.8,6.8-10.8,6.4-5.4,10.4-7.1c4-1.7,8.4-2.5,13.2-2.5h25.7c4.8,0,9.3.9,13.4,2.5,4.1,1.7,7.6,4.1,10.5,7.1,3,3,5.3,6.6,6.9,10.8,1.6,4.2,2.5,8.8,2.5,13.7s-.8,11-2.5,15.3c-1.6,4.3-4,7.9-6.9,11s-6.5,5.4-10.5,7.2c-4.1,1.7-8.5,2.6-13.4,2.6h-25.7v.1Z"></path><path class="cls-18" d="M740.39,107.4c5.5,0,10.3-.8,14.4-2.3s7.5-3.7,10.2-6.5,4.7-6,6.1-9.8c1.3-3.8,2-9.5,2-14,0-10.3-2.8-17.9-8.4-23-5.6-5-13.7-7.6-24.5-7.6h-48.4c-4.1,0-7.3-1.1-9.7-3.3s-3.6-5.4-3.6-9.4,1.2-7.2,3.5-9.5,5.6-3.4,9.9-3.4h75.9V.1h-75.9c-5.2,0-9.9.8-14,2.3s-7.5,3.6-10.3,6.2c-2.8,2.6-4.8,5.8-6.3,9.4s-2.1,7.6-2.1,11.9.8,8.4,2.3,12.1c1.5,3.7,3.6,6.9,6.4,9.5,2.8,2.7,6.2,4.8,10.2,6.3s8.5,2.3,13.5,2.3h48.6c4.9,0,8.7,1.1,11.4,3.4,2.7,2.3,4,5.7,4,10.3s-1.4,9.1-4,11.7c-2.7,2.5-6.5,3.8-11.4,3.8h-79.3v18.5h79.3l.2-.4Z"></path><path class="cls-18" d="M413.19,107.4L352.29,6.2c-1.1-1.8-2.3-3.4-3.7-4.5-1.4-1.1-3.1-1.6-5.2-1.6s-3.8.5-5.2,1.6c-1.4,1.1-2.7,2.7-3.8,4.5l-60.9,101.2h21.1l48.1-81.2,23.6,39.6h-32.4l-8.8,15h50.1l15.9,26.6h22.2-.1Z"></path><path class="cls-26" d="M406.19,107.4L345.19,6.2c-1.1-1.8-2.3-3.4-3.7-4.5-1.4-1.1-3.1-1.6-5.2-1.6s-3.8.5-5.2,1.6c-1.4,1.1-2.7,2.7-3.8,4.5l-60.9,101.2h21.1l48.1-81.2,23.6,39.6h-32.5l-8.7,15h50.1l15.9,26.6h22.2Z"></path><path class="cls-18" d="M648.29,107.4l-60.9-101.2c-1.1-1.8-2.3-3.4-3.7-4.5-1.4-1.1-3.1-1.6-5.2-1.6s-3.8.5-5.2,1.6c-1.4,1.1-2.7,2.7-3.8,4.5l-60.8,101.2h21.1l48-81.2,23.6,39.6h-32.4l-8.7,15h50l15.9,26.6h22.3-.2Z"></path><path class="cls-27" d="M639.39,107.4l-61-101.2c-1.1-1.8-2.3-3.4-3.7-4.5-1.4-1.1-3.1-1.6-5.2-1.6s-3.8.5-5.2,1.6c-1.4,1.1-2.7,2.7-3.8,4.5l-60.8,101.2h21.1l48-81.2,23.6,39.6h-32.4l-8.7,15h50l15.9,26.6h22.3-.1Z"></path><path class="cls-8" d="M639.39,107.4l-61-101.2c-1.1-1.8-2.3-3.4-3.7-4.5-1.4-1.1-3.1-1.6-5.2-1.6s-3.8.5-5.2,1.6c-1.4,1.1-2.7,2.7-3.8,4.5l-60.8,101.2h21.1l48-81.2,23.6,39.6h-32.4l-8.7,15h50l15.9,26.6h22.3-.1Z"></path><path class="cls-5" d="M641.39,107.4l-60.9-101.2c-1.1-1.8-2.3-3.4-3.7-4.5-1.4-1.1-3.1-1.6-5.2-1.6s-3.8.5-5.2,1.6c-1.4,1.1-2.7,2.7-3.8,4.5l-60.8,101.2h21.1l48-81.2,23.6,39.6h-32.4l-8.7,15h50l15.9,26.6h22.3-.2Z"></path><path class="cls-18" d="M450.29,101.3c1.1,1.8,2.3,3.3,3.8,4.4,1.5,1.1,3.2,1.6,5.2,1.6s3.6-.5,5.1-1.6c1.4-1.1,2.7-2.5,3.8-4.4L529.09.1h-21.2l-47.9,81.4L411.99.1h-22.5l60.8,101.2h0Z"></path><path class="cls-6" d="M441.79,101.3c1.1,1.8,2.3,3.3,3.8,4.4,1.5,1.1,3.2,1.6,5.2,1.6s3.6-.5,5.1-1.6c1.4-1.1,2.7-2.5,3.8-4.4L520.69.1h-21.2l-47.9,81.4L403.59.1h-22.5l60.8,101.2h-.1Z"></path><path class="cls-7" d="M441.79,101.3c1.1,1.8,2.3,3.3,3.8,4.4,1.5,1.1,3.2,1.6,5.2,1.6s3.6-.5,5.1-1.6c1.4-1.1,2.7-2.5,3.8-4.4L520.69.1h-21.2l-47.9,81.4L403.59.1h-22.5l60.8,101.2h-.1Z"></path><path class="cls-15" d="M443.69,101.3c1.1,1.8,2.3,3.3,3.8,4.4,1.5,1.1,3.2,1.6,5.2,1.6s3.6-.5,5.1-1.6c1.4-1.1,2.7-2.5,3.8-4.4L522.49.1h-21.2l-47.9,81.4L405.39.1h-22.5l60.8,101.2h0Z"></path><path class="cls-12" d="M731.69,107.4c5.5,0,10.3-.8,14.4-2.3s7.5-3.7,10.2-6.5,4.7-6,6.1-9.8,2-9.5,2-14c0-10.3-2.8-17.9-8.4-23-5.6-5-13.7-7.6-24.5-7.6h-48.4c-4.1,0-7.3-1.1-9.7-3.3s-3.6-5.4-3.6-9.4,1.2-7.2,3.5-9.5,5.6-3.4,9.9-3.4h75.9V.1h-75.9c-5.2,0-9.9.8-14,2.3s-7.5,3.6-10.3,6.2c-2.8,2.6-4.8,5.8-6.3,9.4s-2.1,7.6-2.1,11.9.8,8.4,2.3,12.1c1.5,3.7,3.6,6.9,6.4,9.5,2.8,2.7,6.2,4.8,10.2,6.3s8.5,2.3,13.5,2.3h48.6c4.9,0,8.7,1.1,11.4,3.4,2.7,2.3,4,5.7,4,10.3s-1.4,9.1-4,11.7c-2.7,2.5-6.5,3.8-11.4,3.8h-79.3v18.5h79.3l.2-.4Z"></path><path class="cls-10" d="M731.59,107.4c5.5,0,10.3-.8,14.4-2.3s7.5-3.7,10.2-6.5,4.7-6,6.1-9.8c1.3-3.8,2-9.5,2-14,0-10.3-2.8-17.9-8.4-23-5.6-5-13.7-7.6-24.5-7.6h-48.4c-4.1,0-7.3-1.1-9.7-3.3s-3.6-5.4-3.6-9.4,1.2-7.2,3.5-9.5,5.6-3.4,9.9-3.4h75.9V.1h-75.9c-5.2,0-9.9.8-14,2.3s-7.5,3.6-10.3,6.2c-2.8,2.6-4.8,5.8-6.3,9.4s-2.1,7.6-2.1,11.9.8,8.4,2.3,12.1c1.5,3.7,3.6,6.9,6.4,9.5,2.8,2.7,6.2,4.8,10.2,6.3s8.5,2.3,13.5,2.3h48.6c4.9,0,8.7,1.1,11.4,3.4,2.7,2.3,4,5.7,4,10.3s-1.4,9.1-4,11.7c-2.7,2.5-6.5,3.8-11.4,3.8h-79.3v18.5h79.3l.2-.4Z"></path><path class="cls-9" d="M733.69,107.4c5.5,0,10.3-.8,14.4-2.3s7.5-3.7,10.2-6.5,4.7-6,6.1-9.8,2-9.5,2-14c0-10.3-2.8-17.9-8.4-23-5.6-5-13.7-7.6-24.5-7.6h-48.4c-4.1,0-7.3-1.1-9.7-3.3s-3.6-5.4-3.6-9.4,1.2-7.2,3.5-9.5,5.6-3.4,9.9-3.4h75.9V.1h-75.9c-5.2,0-9.9.8-14,2.3s-7.5,3.6-10.3,6.2c-2.8,2.6-4.8,5.8-6.3,9.4s-2.1,7.6-2.1,11.9.8,8.4,2.3,12.1c1.5,3.7,3.6,6.9,6.4,9.5,2.8,2.7,6.2,4.8,10.2,6.3s8.5,2.3,13.5,2.3h48.6c4.9,0,8.7,1.1,11.4,3.4,2.7,2.3,4,5.7,4,10.3s-1.4,9.1-4,11.7c-2.7,2.5-6.5,3.8-11.4,3.8h-79.3v18.5h79.3l.2-.4Z"></path><path class="cls-14" d="M856.69,107.2c7.6,0,14.5-1.4,20.8-4.2s11.8-6.5,16.4-11.3c4.6-4.8,8.2-10.5,10.8-17.1s3.9-15.2,3.9-22.8-1.3-14.7-3.8-21c-2.5-6.4-6.1-11.8-10.6-16.4-4.6-4.6-10-8.1-16.4-10.6S864.39,0,856.79,0h-25.7c-7.4,0-14.2,1.2-20.4,3.7s-11.7,6-16.3,10.5c-4.6,4.5-8.2,10-10.8,16.4-2.6,6.4-3.9,13.5-3.9,21.2s1.3,16.2,3.9,22.8,6.2,12.3,10.8,17.1c4.6,4.8,10,8.6,16.3,11.3,6.3,2.8,13.1,4.2,20.4,4.2h25.7-.1ZM830.89,88.8c-4.8,0-9.1-.9-13.2-2.6-4-1.7-7.5-4.2-10.4-7.2-2.9-3.1-5.2-6.7-6.8-11-1.6-4.3-2.5-10.3-2.5-15.3s.8-9.7,2.5-13.8,3.9-7.8,6.8-10.8,6.4-5.4,10.4-7.1c4-1.7,8.4-2.5,13.2-2.5h25.7c4.8,0,9.3.9,13.4,2.5,4.1,1.7,7.6,4.1,10.5,7.1,3,3,5.3,6.6,6.9,10.8s2.5,8.8,2.5,13.7-.8,11-2.5,15.3c-1.6,4.3-4,7.9-6.9,11s-6.5,5.4-10.5,7.2c-4.1,1.7-8.5,2.6-13.4,2.6h-25.7v.1Z"></path><path class="cls-11" d="M943.49,107.4V18.5h71.4V0h-89.9v107.4h18.5ZM1010.49,62v-16.1h-53.5v16.1h53.5Z"></path><path class="cls-16" d="M1090.19,107.4V18.5h40.2V0h-98.8v18.5h40.1v88.9h18.5Z"></path><g><path class="cls-22" d="M447.29,176.5c-2.8,1.8-6.4,2.7-10.8,2.7-10.7,0-16.1-5-16.1-14.8h5.9c.1,3.7,1.1,6.3,3,7.9,1.6,1.4,4.1,2.1,7.4,2.1s3.6-.3,5.2-.8c2.9-1.1,4.4-3.1,4.4-6s-.6-3.5-1.8-4.4c-1.3-.9-3.3-1.6-6.1-2.3l-5.2-1.2c-3.4-.8-5.9-1.7-7.3-2.7-2.6-1.7-3.8-4.2-3.8-7.6s1.2-6.6,3.7-9c2.4-2.4,5.9-3.5,10.3-3.5h.6c3.3,0,6.1.6,8.4,1.8,3.9,2.1,6.1,5.9,6.6,11.5h-5.9c-.4-5.6-3.7-8.5-9.7-8.5s-4.7.8-6.3,2.3c-1.2,1.2-1.7,2.7-1.7,4.4s.7,3.2,2.1,4c1,.6,3.3,1.3,6.9,2.1l5.4,1.2c2.7.6,4.7,1.5,6.2,2.6,2.5,1.9,3.8,4.7,3.8,8.3s-1.6,7.8-4.9,9.8h0l-.3.1Z"></path><path class="cls-22" d="M499.39,137.9v40.1h-6.2v-18.7h-19.3v18.7h-6.2v-40.1h6.2v16.6h19.3v-16.6h6.2Z"></path><path class="cls-22" d="M535.29,137.9l15.7,40.1h-6.7l-4.3-11.8h-15.6l-4.3,11.8h-6.7l15.7-40.1h6.2ZM526.19,161.4h12.1l-6.1-16.6-6,16.6Z"></path><path class="cls-22" d="M592.79,141.9c1.5,2,2.3,4.5,2.3,7.4s-.9,5.8-2.6,7.9c-1.6,1.9-3.6,3.1-5.9,3.5-1.4.3-4.3.4-8.8.5h-6.6v16.8h-6.2v-40.1h12.9c4.9,0,7.9.1,9.1.3,2.4.5,4.3,1.7,5.8,3.7h0ZM581.09,156.4c2.8,0,4.8-.5,5.9-1.3,1.4-1,2.1-2.9,2.1-5.8s-.8-4.2-2.4-5.2c-1.2-.8-3.1-1.2-5.6-1.3h-9.9v13.6h9.9Z"></path><path class="cls-22" d="M610.19,137.9h6.2v40.1h-6.2v-40.1Z"></path><path class="cls-22" d="M666.29,137.9v40.1h-7.5l-18.3-31.8v31.8h-5.9v-40.1h7.5l18.3,31.6v-31.6h6-.1Z"></path><path class="cls-22" d="M718.89,156.8v21.2h-3.9l-.2-4.8c.1-.2.2-.3.2-.3h0c-3.3,4.2-7.8,6.3-13.4,6.3s-10.4-2.1-14-6.2c-3.4-4-5.1-8.9-5.1-14.9s1.7-11,5.1-15c3.6-4.2,8.3-6.2,14-6.2s8.6,1.3,11.7,3.9c2.8,2.4,4.7,5.8,5.5,10.1h-6c-.9-2.8-2.1-4.9-3.9-6.5-2-1.8-4.4-2.7-7.3-2.7s-7.2,1.6-9.4,4.9c-2,2.9-3,6.8-3,11.5s1,8.5,3,11.5c2.2,3.3,5.3,4.9,9.4,4.9s5.8-1.2,8.3-3.5c2.6-2.5,4-5.6,4.1-9.2h-11.8v-4.9h16.8l-.1-.1Z"></path><path class="cls-17" d="M789.49,137.9v40.1h-7.5l-18.3-31.8v31.8h-5.9v-40.1h7.5l18.3,31.6v-31.6h6-.1Z"></path><path class="cls-17" d="M837.19,137.9v4.8h-23.4v12.2h22.4v4.8h-22.4v13.4h23.6v4.9h-29.8v-40.1h29.6Z"></path><path class="cls-17" d="M884.29,137.9l-13.3,19.5,14.2,20.6h-7.3l-10.7-16.2-10.7,16.2h-7.3l14.2-20.6-13.3-19.5h7.2l9.9,15.1,9.9-15.1h7.2Z"></path><path class="cls-17" d="M928.69,137.9v4.8h-13.2v35.3h-6.2v-35.3h-13.2v-4.8h32.7-.1Z"></path><path class="cls-31" d="M999.59,156.8v21.2h-3.9l-.2-4.8c.1-.2.2-.3.2-.3h0c-3.3,4.2-7.8,6.3-13.4,6.3s-10.4-2.1-14-6.2c-3.4-4-5.1-8.9-5.1-14.9s1.7-11,5.1-15c3.6-4.2,8.3-6.2,14-6.2s8.6,1.3,11.7,3.9c2.8,2.4,4.7,5.8,5.5,10.1h-6c-.9-2.8-2.1-4.9-3.9-6.5-2-1.8-4.4-2.7-7.3-2.7s-7.2,1.6-9.4,4.9c-2,2.9-3,6.8-3,11.5s1,8.5,3,11.5c2.2,3.3,5.3,4.9,9.4,4.9s5.8-1.2,8.3-3.5c2.6-2.5,4-5.6,4.1-9.2h-11.8v-4.9h16.8l-.1-.1Z"></path><path class="cls-31" d="M1045.69,137.9v4.8h-23.4v12.2h22.4v4.8h-22.4v13.4h23.6v4.9h-29.8v-40.1h29.6,0Z"></path><path class="cls-31" d="M1093.09,137.9v40.1h-7.5l-18.3-31.8v31.8h-5.9v-40.1h7.5l18.3,31.6v-31.6h6-.1Z"></path></g><path class="cls-13" d="M858.39,107.2c7.6,0,14.5-1.4,20.8-4.2s11.8-6.5,16.4-11.3c4.6-4.8,8.2-10.5,10.8-17.1s3.9-15.2,3.9-22.8-1.3-14.7-3.8-21c-2.5-6.4-6.1-11.8-10.6-16.4-4.6-4.6-10-8.1-16.4-10.6S866.09,0,858.49,0h-25.7c-7.4,0-14.2,1.2-20.4,3.7s-11.7,6-16.3,10.5-8.2,10-10.8,16.4c-2.6,6.4-3.9,13.5-3.9,21.2s1.3,16.2,3.9,22.8,6.2,12.3,10.8,17.1,10,8.6,16.3,11.3c6.3,2.8,13.1,4.2,20.4,4.2h25.7-.1ZM832.59,88.8c-4.8,0-9.1-.9-13.2-2.6-4-1.7-7.5-4.2-10.4-7.2-2.9-3.1-5.2-6.7-6.8-11-1.6-4.3-2.5-10.3-2.5-15.3s.8-9.7,2.5-13.8,3.9-7.8,6.8-10.8,6.4-5.4,10.4-7.1c4-1.7,8.4-2.5,13.2-2.5h25.7c4.8,0,9.3.9,13.4,2.5,4.1,1.7,7.6,4.1,10.5,7.1,3,3,5.3,6.6,6.9,10.8s2.5,8.8,2.5,13.7-.8,11-2.5,15.3c-1.6,4.3-4,7.9-6.9,11s-6.5,5.4-10.5,7.2c-4.1,1.7-8.5,2.6-13.4,2.6h-25.7v.1Z"></path><path class="cls-20" d="M995.99,233.1c.2,0,145.3,5.7,147.1-145.2-.5,4.9,28,153-147.1,145.2Z"></path><path class="cls-19" d="M1002.69,233.7c32.1,3.6,171.2,15.3,140.4-145.7.9,4.5,29.6,155.9-146.9,145.2,0,0,2.4.1,6.5.6h0v-.1Z"></path><path class="cls-21" d="M1143.09,88c1.4,5.2,45.9,171.5-147.1,145.1-1.3-.3,199.7,50.7,147.1-145.1Z"></path><path class="cls-18" d="M122.99,238.8s-9.1-43.8-19.9-90.2c0,0-4.9-24.6-22.8-21.2,0,0-6.1-4.1,13.7-13,0,0,12.5-5.4,23.4,14.9,0,0,14.8,27.5,19.7,108.9,0,0,43.2-52.6,44.5-110.3l19.2,2.4s-3.4,42.5-51.3,106c0,0,36.2-5.5,64.2-37,0,0,29.4-28.4,30.1-78.9,0,0,.9-23.9-10-47.8,0,0-73.6,59.5-76.4,67.1,0,0-8.7,11.3-.4,21.6,0,0-.6,7.4-17.9-5.9,0,0-10.7-8.9,2.2-28.1,0,0,14.3-22.6,85.7-67.9,0,0-64.8-11.8-117.6,12.5l-7-18s42.4-16.8,117.2-5.3c0,0-30.8-46.3-94.1-47,0,0-59.2-3.5-98.4,52.3,0,0,75.3,28.2,95.8,31.3,0,0,18.4,3.9,22.6-10.3,0,0,7.2-2.1,4.2,18.4,0,0-6.4,35.3-129.1-28,0,0,24,68,72.9,96.5l-11.9,15.3s-35.1-26-66.8-99.7c0,0-23.4,49.8,9.4,104.7,0,0,30.6,55.6,98.7,56.6h0l.1.1Z"></path><g class="cls-1"><g><path class="cls-18" d="M116.29,237.4s-9.1-43.8-19.9-90.2c0,0-4.9-24.6-22.8-21.2,0,0-6.1-4.1,13.7-13,0,0,12.5-5.4,23.4,14.9,0,0,14.8,27.5,19.7,108.9,0,0,43.2-52.6,44.5-110.3l19.2,2.4s-3.4,42.5-51.3,106c0,0,36.2-5.5,64.2-37,0,0,29.4-28.4,30.1-78.9,0,0,.9-23.9-10-47.8,0,0-73.6,59.5-76.4,67.1,0,0-8.7,11.3-.4,21.6,0,0-.6,7.4-17.9-5.9,0,0-10.7-8.9,2.2-28.1,0,0,14.3-22.6,85.7-67.9,0,0-64.8-11.8-117.6,12.5l-7-18s42.4-16.8,117.2-5.3c0,0-30.8-46.3-94.1-47,0,0-59.2-3.5-98.4,52.3,0,0,75.3,28.2,95.8,31.3,0,0,18.4,3.9,22.6-10.3,0,0,7.2-2.1,4.2,18.4,0,0-6.4,35.3-129.1-28,0,0,24,68,72.9,96.5l-11.9,15.3s-35.1-26.1-66.8-99.7c0,0-23.4,49.8,9.4,104.7,0,0,30.6,55.6,98.7,56.6h0l.1.1Z"></path><rect class="cls-4" x="-1.11" y="-.7" width="244.19" height="244.19"></rect></g></g></g></g></g></svg> 