<svg width="186" height="30" viewBox="0 0 186 30" fill="none" xmlns="http://www.w3.org/2000/svg">
<path d="M12.38 0L0 24.4663H5.75094L18.1355 0H12.38Z" fill="#1E3A8A"/>
<path d="M83.6295 9.79376L82.6377 11.7498H82.5785C82.1684 10.9688 81.5342 10.3303 80.7586 9.91744C79.9747 9.55468 79.1187 9.3776 78.2562 9.39981C77.3256 9.38014 76.4038 9.5843 75.5673 9.99532C74.8034 10.3764 74.1335 10.9241 73.6063 11.5986C73.066 12.2918 72.66 13.0813 72.4097 13.9257C72.1345 14.8154 71.9964 15.7423 72.0002 16.6742C71.994 17.6316 72.1087 18.586 72.3415 19.5143C72.5538 20.366 72.9328 21.1665 73.4562 21.8689C73.9694 22.5463 74.6353 23.0912 75.3989 23.4584C76.2828 23.8666 77.2477 24.0656 78.2198 24.0402C79.0903 24.0444 79.9509 23.8552 80.7404 23.4859C81.5263 23.1324 82.1753 22.5289 82.5876 21.7681H82.6422V23.7012C82.6422 25.9917 81.5775 27.3018 79.4573 27.3018C77.3371 27.3018 76.2088 26.3856 75.6082 25.6343L74.1614 28.5157C74.1614 28.5157 75.7993 29.9999 78.8977 29.9999C84.0344 29.9999 86.4458 27.485 86.4458 23.5272V9.7846L83.6295 9.79376ZM82.4284 18.4653C82.2942 18.9307 82.0785 19.3682 81.7914 19.7571C81.5071 20.1388 81.1418 20.4518 80.7222 20.6733C80.2595 20.9067 79.7473 21.023 79.2299 21.0123C78.6853 21.0328 78.1465 20.8944 77.6784 20.6137C77.2703 20.3563 76.9276 20.0065 76.6774 19.5922C76.4163 19.1617 76.2359 18.6866 76.1451 18.1905C76.0399 17.6719 75.9866 17.144 75.9859 16.6146C75.9846 16.0837 76.0472 15.5546 76.1724 15.0388C76.2848 14.5611 76.4855 14.1089 76.7639 13.7058C77.0291 13.3272 77.3759 13.014 77.7785 12.7896C78.2247 12.5514 78.725 12.4346 79.2299 12.4507C79.7966 12.4284 80.3595 12.5546 80.8632 12.8171C81.2821 13.0537 81.6368 13.3904 81.896 13.7974C82.1685 14.2371 82.3597 14.7229 82.4602 15.2312C82.5759 15.7948 82.6323 16.369 82.6286 16.9445C82.6344 17.4585 82.567 17.9706 82.4284 18.4653Z" fill="#1E3A8A"/>
<path d="M30.2747 4.20532V11.837H30.3611C30.8121 11.0387 31.4882 10.393 32.3039 9.98178C33.0179 9.61124 33.8074 9.41212 34.6106 9.40001C35.5116 9.37575 36.4085 9.53144 37.2495 9.85809C37.8852 10.1161 38.4433 10.536 38.8692 11.0766C39.2804 11.6415 39.5631 12.2905 39.6973 12.9777C39.8642 13.7944 39.945 14.6266 39.9384 15.4605V24.4848H35.9437V16.1797C36.0061 15.2422 35.8109 14.3055 35.3795 13.4724C35.0064 12.8723 34.3376 12.5562 33.3822 12.5562C32.2902 12.5562 31.5031 12.886 31.0117 13.5365C30.5203 14.187 30.2792 15.2635 30.2792 16.7431V24.4664H26.2754V4.20532H30.2747Z" fill="#1E3A8A"/>
<path d="M41.6166 13.9534C41.9444 13.0397 42.4626 12.2072 43.1362 11.5118C43.8096 10.8326 44.6151 10.3008 45.5021 9.94971C47.5096 9.21533 49.7097 9.21533 51.7171 9.94971C52.6176 10.2915 53.4333 10.8268 54.1075 11.5182C54.7816 12.2096 55.2981 13.0406 55.6209 13.9534C55.9907 14.9808 56.1726 16.0672 56.1577 17.16C56.1714 18.2437 55.9895 19.3208 55.6209 20.3391C55.2873 21.2445 54.7697 22.0698 54.1012 22.7624C53.4233 23.4335 52.6103 23.9506 51.7171 24.2786C49.7049 24.9943 47.5098 24.9943 45.4976 24.2786C44.6087 23.9375 43.8022 23.4097 43.1317 22.7303C42.4602 22.0402 41.9422 21.2141 41.6121 20.307C41.2412 19.2894 41.0593 18.2118 41.0752 17.1279C41.0634 16.0455 41.2469 14.9699 41.6166 13.9534ZM45.2564 18.8595C45.357 19.3929 45.5528 19.9035 45.8343 20.3666C46.1008 20.8068 46.4732 21.1723 46.9171 21.4293C47.4358 21.7119 48.0202 21.8495 48.6096 21.8279C49.2017 21.8476 49.7886 21.7102 50.3113 21.4293C50.7624 21.1756 51.1415 20.8097 51.4123 20.3666C51.6921 19.9026 51.8877 19.3923 51.9901 18.8595C52.104 18.2956 52.1604 17.7216 52.1585 17.1462C52.1597 16.5648 52.1033 15.9848 51.9901 15.4147C51.8899 14.8812 51.6941 14.3705 51.4123 13.9076C51.1359 13.4626 50.7566 13.0916 50.3067 12.8265C49.7857 12.5404 49.1982 12.3996 48.6051 12.4188C48.0538 12.3892 47.5048 12.5103 47.0162 12.7691C46.5277 13.028 46.1177 13.415 45.8297 13.8892C45.546 14.3512 45.3501 14.8623 45.2519 15.3963C45.1372 15.9663 45.0793 16.5464 45.079 17.1279C45.0773 17.7095 45.1353 18.2898 45.2519 18.8595H45.2564Z" fill="#1E3A8A"/>
<path d="M67.0772 24.4664V22.4463H66.9953C66.5368 23.2444 65.8481 23.8834 65.0207 24.2786C64.2451 24.6468 63.3986 24.8392 62.5411 24.842C61.6444 24.8708 60.7504 24.7278 59.9067 24.4206C59.2677 24.1732 58.7077 23.7551 58.287 23.2113C57.8717 22.6483 57.5872 21.9986 57.4544 21.3102C57.2875 20.4934 57.2067 19.6612 57.2133 18.8274V9.79395H61.2171V18.0807C61.1548 19.0196 61.35 19.9577 61.7812 20.7926C62.1543 21.3881 62.8216 21.6935 63.7832 21.7087C64.8721 21.7087 65.6607 21.382 66.1491 20.7284C66.6359 20.078 66.8816 19.0015 66.8816 17.5218V9.79395H70.8808V24.4527L67.0772 24.4664Z" fill="#1E3A8A"/>
<path d="M91.9413 4.20532V11.837H92.0232C92.4767 11.039 93.1541 10.3936 93.9705 9.98178C94.6846 9.61124 95.4741 9.41212 96.2773 9.40001C97.1783 9.37575 98.0752 9.53144 98.9162 9.85809C99.5548 10.1088 100.118 10.5224 100.55 11.0583C100.96 11.6238 101.245 12.2725 101.382 12.9593C101.547 13.7763 101.627 14.6085 101.619 15.4422V24.4664H97.6195V16.1797C97.6798 15.2424 97.4847 14.3063 97.0553 13.4724C96.6792 12.8616 96.0119 12.5562 95.0534 12.5562C93.9614 12.5562 93.1743 12.886 92.6875 13.5365C92.2007 14.187 91.955 15.2635 91.955 16.7431V24.4664H87.9512V4.20532H91.9413Z" fill="#1E3A8A"/>
<path d="M132.153 13.9534C132.477 13.0444 132.992 12.2163 133.663 11.5255C134.333 10.8346 135.143 10.2972 136.039 9.94971C138.046 9.21533 140.246 9.21533 142.254 9.94971C143.153 10.2934 143.968 10.8293 144.642 11.5205C145.315 12.2116 145.833 13.0417 146.157 13.9534C146.527 14.9808 146.709 16.0672 146.694 17.16C146.708 18.2437 146.526 19.3208 146.157 20.3391C145.824 21.2458 145.305 22.0715 144.633 22.7624C143.959 23.4339 143.149 23.9511 142.258 24.2786C140.246 24.9943 138.051 24.9943 136.039 24.2786C135.149 23.9387 134.342 23.4107 133.673 22.7303C133.001 22.0395 132.482 21.2137 132.148 20.307C131.781 19.2885 131.601 18.2113 131.616 17.1279C131.605 16.0459 131.787 14.9707 132.153 13.9534ZM135.793 18.8595C135.895 19.3923 136.091 19.9026 136.371 20.3666C136.64 20.806 137.014 21.1712 137.458 21.4293C137.977 21.7119 138.561 21.8495 139.151 21.8279C139.743 21.8476 140.33 21.7102 140.852 21.4293C141.302 21.1743 141.681 20.8087 141.953 20.3666C142.233 19.9026 142.429 19.3923 142.531 18.8595C142.645 18.2956 142.701 17.7216 142.699 17.1462C142.701 16.5648 142.644 15.9848 142.531 15.4147C142.431 14.8812 142.235 14.3705 141.953 13.9076C141.676 13.4636 141.297 13.0929 140.848 12.8265C140.327 12.5404 139.739 12.3996 139.146 12.4188C138.556 12.3976 137.971 12.5386 137.453 12.8265C137.014 13.0912 136.642 13.455 136.366 13.8892C136.084 14.3522 135.888 14.8628 135.788 15.3963C135.677 15.9668 135.621 16.5466 135.62 17.1279C135.619 17.7093 135.675 18.2893 135.788 18.8595H135.793Z" fill="#1E3A8A"/>
<path d="M163.215 4.20508V15.0754L168.256 9.79372H172.992L167.496 15.1854L173.616 24.4662H168.765L164.766 17.911L163.215 19.4135V24.4524H159.211V4.20508H163.215Z" fill="#1E3A8A"/>
<path d="M176.572 20.8199C176.743 21.1226 176.977 21.3838 177.259 21.5849C177.555 21.7942 177.884 21.9493 178.233 22.043C178.606 22.1392 178.99 22.1869 179.375 22.185C179.674 22.1841 179.971 22.1503 180.262 22.0842C180.558 22.0242 180.844 21.9192 181.109 21.7727C181.359 21.6342 181.576 21.4399 181.741 21.2047C181.923 20.9357 182.013 20.6138 181.996 20.2885C181.996 19.6839 181.595 19.2303 180.799 18.9143C179.709 18.5289 178.593 18.2228 177.46 17.9981C176.877 17.8653 176.309 17.7095 175.753 17.54C175.224 17.3827 174.72 17.1498 174.257 16.8483C173.831 16.5627 173.474 16.1837 173.215 15.7397C172.938 15.2426 172.801 14.6787 172.819 14.109C172.785 13.2969 172.975 12.4913 173.369 11.7819C173.724 11.1869 174.223 10.6933 174.821 10.3481C175.457 9.9891 176.149 9.74273 176.868 9.61972C177.629 9.47756 178.401 9.40702 179.175 9.409C179.946 9.40634 180.716 9.48153 181.473 9.63347C182.175 9.76923 182.849 10.0298 183.461 10.403C184.045 10.7633 184.541 11.2519 184.912 11.8323C185.325 12.5158 185.562 13.2918 185.604 14.0906H181.8C181.808 13.7733 181.731 13.4596 181.577 13.1824C181.424 12.9052 181.199 12.6747 180.927 12.5148C180.348 12.2283 179.71 12.0868 179.066 12.1025C178.821 12.1035 178.576 12.1172 178.333 12.1438C178.086 12.1698 177.843 12.2331 177.614 12.3316C177.4 12.421 177.211 12.5626 177.064 12.7439C176.905 12.9485 176.826 13.2041 176.841 13.4631C176.835 13.63 176.867 13.7962 176.935 13.9487C177.003 14.1012 177.104 14.236 177.232 14.3426C177.536 14.593 177.885 14.7813 178.26 14.8969C178.736 15.0532 179.221 15.1817 179.712 15.2817C180.258 15.3977 180.813 15.5214 181.377 15.6527C181.953 15.7811 182.521 15.9417 183.079 16.1337C183.606 16.3085 184.104 16.5617 184.557 16.885C184.987 17.1907 185.344 17.588 185.604 18.0485C185.883 18.5761 186.02 19.1686 186 19.7663C186.037 20.5599 185.864 21.3492 185.497 22.0524C185.129 22.7555 184.582 23.347 183.911 23.7654C183.261 24.176 182.541 24.4603 181.786 24.6037C180.983 24.7634 180.166 24.8432 179.348 24.8419C178.515 24.8441 177.684 24.7597 176.868 24.5899C176.104 24.4359 175.373 24.1441 174.712 23.7287C174.028 23.3073 173.464 22.7142 173.077 22.0075C172.689 21.3008 172.49 20.5048 172.5 19.6976H176.304C176.292 20.0892 176.384 20.4769 176.572 20.8199Z" fill="#1E3A8A"/>
<path d="M110.074 21.4567C109.593 21.5157 109.107 21.3951 108.709 21.1177C108.433 20.7166 108.313 20.2276 108.372 19.7435V12.492H110.606L111.971 9.79386H108.377V5.39624H104.373V9.79386H102.371L101.006 12.4874H104.368V21.1452C104.342 21.7623 104.469 22.3762 104.737 22.9317C104.965 23.3709 105.312 23.7362 105.738 23.9853C106.192 24.2397 106.688 24.4074 107.203 24.4801C107.785 24.5684 108.374 24.6113 108.963 24.6083C109.359 24.6083 109.76 24.6083 110.174 24.5808C110.552 24.5648 110.928 24.5265 111.302 24.4663V21.3422C111.107 21.3837 110.909 21.4128 110.711 21.4292C110.515 21.4475 110.301 21.4567 110.074 21.4567Z" fill="#1E3A8A"/>
<path d="M23.7819 21.4567C23.3011 21.5153 22.8156 21.3947 22.417 21.1177C22.1415 20.7166 22.0217 20.2276 22.0803 19.7435V12.492H24.1414L25.5063 9.79386H22.0894V5.39624H18.0901V9.79386H16.0837L14.7188 12.4874H18.0856V21.1452C18.0582 21.7619 18.1832 22.3757 18.4496 22.9317C18.6793 23.3699 19.026 23.7348 19.4505 23.9853C19.9089 24.2406 20.4102 24.4083 20.9292 24.4801C21.512 24.5684 22.1007 24.6113 22.69 24.6083C23.0858 24.6083 23.4907 24.6083 23.9002 24.5808C24.2767 24.5646 24.6519 24.5264 25.024 24.4663V21.3422C24.8289 21.3837 24.6313 21.4128 24.4326 21.4292C24.2233 21.4475 24.0049 21.4567 23.7819 21.4567Z" fill="#1E3A8A"/>
<path d="M156.09 9.39996C152.728 9.39996 151.44 12.5195 151.44 12.5195H151.386V9.79391H147.582V24.4526H151.581V18.3235C151.581 14.7504 152.273 13.1563 155.298 13.1563C155.843 13.1483 156.381 13.2774 156.864 13.5319L158.579 10.1421C157.84 9.65368 156.974 9.39556 156.09 9.39996Z" fill="#1E3A8A"/>
<path d="M128.259 9.79834L125.579 19.725H125.524L123.045 9.79834H119.155L116.729 19.7571H116.675L114 9.79834L111.393 14.9426L114.395 24.4662H118.536L121.015 14.6174H121.07L123.663 24.4662H127.781L132.372 9.79834H128.259Z" fill="#1E3A8A"/>
</svg>
